<mxfile host="Electron" agent="Mozilla/5.0 (Windows NT 10.0; Win64; x64) AppleWebKit/537.36 (KHTML, like Gecko) draw.io/24.7.17 Chrome/128.0.6613.36 Electron/32.0.1 Safari/537.36" version="24.7.17">
  <diagram name="Page-1" id="SkuC76hFCjA3VyX_A-ML">
    <mxGraphModel dx="794" dy="559" grid="1" gridSize="10" guides="1" tooltips="1" connect="1" arrows="1" fold="1" page="1" pageScale="1" pageWidth="827" pageHeight="1169" math="0" shadow="0">
      <root>
        <mxCell id="0" />
        <mxCell id="1" parent="0" />
        <mxCell id="YCFNGN1wlttzQGaKL09i-6" style="edgeStyle=orthogonalEdgeStyle;rounded=0;orthogonalLoop=1;jettySize=auto;html=1;curved=1;strokeWidth=2;fillColor=#d5e8d4;strokeColor=#82b366;" parent="1" source="MDLXURxubLseBGRayLQ--1" target="s0e6hnzGLSj_OodZ54pA-2" edge="1">
          <mxGeometry relative="1" as="geometry" />
        </mxCell>
        <mxCell id="YCFNGN1wlttzQGaKL09i-7" style="edgeStyle=orthogonalEdgeStyle;rounded=0;orthogonalLoop=1;jettySize=auto;html=1;curved=1;fillColor=#d5e8d4;strokeColor=#82b366;strokeWidth=2;" parent="1" source="MDLXURxubLseBGRayLQ--1" target="s0e6hnzGLSj_OodZ54pA-4" edge="1">
          <mxGeometry relative="1" as="geometry" />
        </mxCell>
        <mxCell id="YCFNGN1wlttzQGaKL09i-8" style="edgeStyle=orthogonalEdgeStyle;rounded=0;orthogonalLoop=1;jettySize=auto;html=1;curved=1;fillColor=#d5e8d4;strokeColor=#82b366;strokeWidth=2;" parent="1" source="MDLXURxubLseBGRayLQ--1" target="s0e6hnzGLSj_OodZ54pA-3" edge="1">
          <mxGeometry relative="1" as="geometry" />
        </mxCell>
        <mxCell id="YCFNGN1wlttzQGaKL09i-10" style="edgeStyle=orthogonalEdgeStyle;rounded=0;orthogonalLoop=1;jettySize=auto;html=1;curved=1;exitX=0;exitY=0.5;exitDx=0;exitDy=0;strokeWidth=2;fillColor=#d5e8d4;strokeColor=#82b366;" parent="1" source="MDLXURxubLseBGRayLQ--1" target="s0e6hnzGLSj_OodZ54pA-1" edge="1">
          <mxGeometry relative="1" as="geometry" />
        </mxCell>
        <mxCell id="MDLXURxubLseBGRayLQ--1" value="Shrimple" style="ellipse;whiteSpace=wrap;html=1;aspect=fixed;fillColor=#ffe6cc;strokeColor=#d79b00;fontFamily=Lucida Console;" parent="1" vertex="1">
          <mxGeometry x="374" y="545" width="80" height="80" as="geometry" />
        </mxCell>
        <mxCell id="YCFNGN1wlttzQGaKL09i-4" style="edgeStyle=orthogonalEdgeStyle;rounded=0;orthogonalLoop=1;jettySize=auto;html=1;curved=1;entryX=0;entryY=1;entryDx=0;entryDy=0;fillColor=#f8cecc;strokeColor=#b85450;strokeWidth=2;" parent="1" source="s0e6hnzGLSj_OodZ54pA-1" target="MDLXURxubLseBGRayLQ--1" edge="1">
          <mxGeometry relative="1" as="geometry" />
        </mxCell>
        <mxCell id="s0e6hnzGLSj_OodZ54pA-1" value="ML Engineer" style="rounded=0;whiteSpace=wrap;html=1;fontFamily=Lucida Console;fillColor=#dae8fc;strokeColor=#6c8ebf;" parent="1" vertex="1">
          <mxGeometry x="140" y="730" width="120" height="60" as="geometry" />
        </mxCell>
        <mxCell id="YCFNGN1wlttzQGaKL09i-2" value="" style="edgeStyle=orthogonalEdgeStyle;rounded=0;orthogonalLoop=1;jettySize=auto;html=1;curved=1;entryX=0;entryY=0;entryDx=0;entryDy=0;fillColor=#f8cecc;strokeColor=#b85450;strokeWidth=2;" parent="1" source="s0e6hnzGLSj_OodZ54pA-2" target="MDLXURxubLseBGRayLQ--1" edge="1">
          <mxGeometry x="0.0342" y="-6" relative="1" as="geometry">
            <mxPoint as="offset" />
          </mxGeometry>
        </mxCell>
        <mxCell id="s0e6hnzGLSj_OodZ54pA-2" value="User" style="rounded=0;whiteSpace=wrap;html=1;fontFamily=Lucida Console;fillColor=#dae8fc;strokeColor=#6c8ebf;" parent="1" vertex="1">
          <mxGeometry x="140" y="390" width="120" height="60" as="geometry" />
        </mxCell>
        <mxCell id="YCFNGN1wlttzQGaKL09i-5" style="edgeStyle=orthogonalEdgeStyle;rounded=0;orthogonalLoop=1;jettySize=auto;html=1;curved=1;entryX=1;entryY=1;entryDx=0;entryDy=0;strokeWidth=2;fillColor=#f8cecc;strokeColor=#b85450;" parent="1" source="s0e6hnzGLSj_OodZ54pA-3" target="MDLXURxubLseBGRayLQ--1" edge="1">
          <mxGeometry relative="1" as="geometry" />
        </mxCell>
        <mxCell id="s0e6hnzGLSj_OodZ54pA-3" value="Database" style="rounded=0;whiteSpace=wrap;html=1;fillColor=#dae8fc;strokeColor=#6c8ebf;fontFamily=Lucida Console;" parent="1" vertex="1">
          <mxGeometry x="570" y="730" width="120" height="60" as="geometry" />
        </mxCell>
        <mxCell id="YCFNGN1wlttzQGaKL09i-3" style="edgeStyle=orthogonalEdgeStyle;rounded=0;orthogonalLoop=1;jettySize=auto;html=1;curved=1;entryX=1;entryY=0;entryDx=0;entryDy=0;fillColor=#f8cecc;strokeColor=#b85450;strokeWidth=2;" parent="1" source="s0e6hnzGLSj_OodZ54pA-4" target="MDLXURxubLseBGRayLQ--1" edge="1">
          <mxGeometry relative="1" as="geometry" />
        </mxCell>
        <mxCell id="s0e6hnzGLSj_OodZ54pA-4" value="Environmental Agencies" style="rounded=0;whiteSpace=wrap;html=1;fillColor=#dae8fc;strokeColor=#6c8ebf;fontFamily=Lucida Console;" parent="1" vertex="1">
          <mxGeometry x="570" y="390" width="120" height="60" as="geometry" />
        </mxCell>
        <mxCell id="YCFNGN1wlttzQGaKL09i-11" value="&lt;font face=&quot;Lucida Console&quot;&gt;LOCATION DATA&lt;/font&gt;" style="text;html=1;align=center;verticalAlign=middle;resizable=0;points=[];autosize=1;strokeColor=none;fillColor=none;rotation=45;" parent="1" vertex="1">
          <mxGeometry x="300" y="430" width="120" height="30" as="geometry" />
        </mxCell>
        <mxCell id="YCFNGN1wlttzQGaKL09i-12" value="&lt;font face=&quot;Lucida Console&quot;&gt;PAST DATA&lt;/font&gt;" style="text;html=1;align=center;verticalAlign=middle;resizable=0;points=[];autosize=1;strokeColor=none;fillColor=none;rotation=45;" parent="1" vertex="1">
          <mxGeometry x="420" y="720" width="90" height="30" as="geometry" />
        </mxCell>
        <mxCell id="YCFNGN1wlttzQGaKL09i-13" value="&lt;font face=&quot;Lucida Console&quot;&gt;TRAINING DATA&lt;/font&gt;" style="text;html=1;align=center;verticalAlign=middle;resizable=0;points=[];autosize=1;strokeColor=none;fillColor=none;rotation=315;" parent="1" vertex="1">
          <mxGeometry x="310" y="720" width="120" height="30" as="geometry" />
        </mxCell>
        <mxCell id="YCFNGN1wlttzQGaKL09i-14" value="&lt;font face=&quot;Lucida Console&quot;&gt;PROCESS DATA&lt;/font&gt;" style="text;html=1;align=center;verticalAlign=middle;resizable=0;points=[];autosize=1;strokeColor=none;fillColor=none;rotation=45;" parent="1" vertex="1">
          <mxGeometry x="555" y="610" width="110" height="30" as="geometry" />
        </mxCell>
        <mxCell id="YCFNGN1wlttzQGaKL09i-15" value="REPORT" style="text;html=1;align=center;verticalAlign=middle;whiteSpace=wrap;rounded=0;fontFamily=Lucida Console;rotation=315;" parent="1" vertex="1">
          <mxGeometry x="200" y="600" width="60" height="30" as="geometry" />
        </mxCell>
        <mxCell id="YCFNGN1wlttzQGaKL09i-17" value="REPORT" style="text;html=1;align=center;verticalAlign=middle;whiteSpace=wrap;rounded=0;fontFamily=Lucida Console;rotation=45;" parent="1" vertex="1">
          <mxGeometry x="190" y="540" width="60" height="30" as="geometry" />
        </mxCell>
        <mxCell id="YCFNGN1wlttzQGaKL09i-19" value="FEEDBACK" style="text;html=1;align=center;verticalAlign=middle;whiteSpace=wrap;rounded=0;fontFamily=Lucida Console;rotation=315;" parent="1" vertex="1">
          <mxGeometry x="440" y="420" width="60" height="30" as="geometry" />
        </mxCell>
        <mxCell id="YCFNGN1wlttzQGaKL09i-21" value="ENVIRONMENTAL INFORMATION" style="text;html=1;align=center;verticalAlign=middle;whiteSpace=wrap;rounded=0;fontFamily=Lucida Console;rotation=315;" parent="1" vertex="1">
          <mxGeometry x="590" y="530" width="60" height="30" as="geometry" />
        </mxCell>
      </root>
    </mxGraphModel>
  </diagram>
</mxfile>
